<svg width="38" height="38" viewBox="0 0 38 38" fill="none" xmlns="http://www.w3.org/2000/svg">
<g clip-path="url(#clip0_9974_6504)">
<path d="M23.75 2.66663C24.1536 2.66707 24.5417 2.8216 24.8352 3.09864C25.1286 3.37567 25.3052 3.7543 25.3289 4.15717C25.3525 4.56003 25.2214 4.95673 24.9624 5.26619C24.7034 5.57566 24.336 5.77455 23.9352 5.82221L23.75 5.83329C22.6528 5.83329 21.6442 6.93213 21.0726 8.29063C22.0493 7.79353 23.1171 7.50046 24.2108 7.42929L24.6303 7.41663C29.3518 7.41663 33.25 12.2505 33.25 17.4233C33.25 23.0394 32.2905 26.7048 29.4136 31.0051C26.7346 34.5692 22.9346 35.364 19.2644 32.959C19.1899 32.9114 19.104 32.8848 19.0156 32.882C18.9273 32.8792 18.8398 32.9003 18.7625 32.9431C15.0654 35.3625 11.2654 34.5692 8.53417 30.9323C5.71108 26.708 4.75 23.041 4.75 17.4233L4.75633 17.0718C4.92733 12.0352 8.75583 7.41663 13.3697 7.41663C14.858 7.41663 16.302 7.87738 17.6257 8.67063C18.2891 5.58313 20.5042 2.66663 23.75 2.66663ZM12.6128 12.4105C10.4595 13.769 9.5 15.6721 9.5 18.5C9.5 18.9199 9.66682 19.3226 9.96375 19.6195C10.2607 19.9165 10.6634 20.0833 11.0833 20.0833C11.5033 20.0833 11.906 19.9165 12.2029 19.6195C12.4999 19.3226 12.6667 18.9199 12.6667 18.5C12.6667 16.7187 13.11 15.8431 14.3038 15.0895C14.6591 14.8652 14.9107 14.509 15.0034 14.0993C15.096 13.6895 15.0221 13.2597 14.7978 12.9045C14.5736 12.5492 14.2174 12.2976 13.8076 12.2049C13.3979 12.1123 12.9681 12.1862 12.6128 12.4105Z" fill="url(#paint0_linear_9974_6504)"/>
</g>
<defs>
<linearGradient id="paint0_linear_9974_6504" x1="19" y1="2.66663" x2="19" y2="34.3385" gradientUnits="userSpaceOnUse">
<stop stop-color="#61C02F"/>
<stop offset="1" stop-color="#7BD74A"/>
</linearGradient>
<clipPath id="clip0_9974_6504">
<rect width="38" height="38" fill="white"/>
</clipPath>
</defs>
</svg>
