<svg width="38" height="38" viewBox="0 0 38 38" fill="none" xmlns="http://www.w3.org/2000/svg">
<g clip-path="url(#clip0_9974_6500)">
<path d="M26.9165 4.78837C29.3235 6.17804 31.3223 8.17682 32.7119 10.5838C34.1016 12.9908 34.8332 15.7212 34.8332 18.5005C34.8332 21.2799 34.1015 24.0103 32.7118 26.4172C31.3221 28.8242 29.3233 30.823 26.9163 32.2126C24.5093 33.6022 21.7789 34.3338 18.9996 34.3338C16.2202 34.3337 13.4899 33.6021 11.0829 32.2124C8.67595 30.8226 6.67721 28.8238 5.28759 26.4168C3.89797 24.0098 3.16643 21.2794 3.1665 18.5L3.17442 17.987C3.26309 15.2526 4.05879 12.5878 5.48393 10.2524C6.90908 7.91707 8.91504 5.99083 11.3062 4.66151C13.6975 3.3322 16.3923 2.64516 19.1281 2.66739C21.8639 2.68962 24.5472 3.42036 26.9165 4.78837ZM18.9998 9.00003C18.5799 9.00003 18.1772 9.16685 17.8803 9.46378C17.5833 9.76071 17.4165 10.1634 17.4165 10.5834V18.5C17.4165 18.92 17.5833 19.3227 17.8803 19.6196C18.1772 19.9165 18.5799 20.0834 18.9998 20.0834H24.5415C24.9614 20.0834 25.3642 19.9165 25.6611 19.6196C25.958 19.3227 26.1248 18.92 26.1248 18.5C26.1248 18.0801 25.958 17.6774 25.6611 17.3804C25.3642 17.0835 24.9614 16.9167 24.5415 16.9167H20.5832V10.5834C20.5831 10.1956 20.4407 9.82125 20.183 9.53144C19.9253 9.24164 19.5702 9.05649 19.1851 9.01112L18.9998 9.00003Z" fill="url(#paint0_linear_9974_6500)"/>
</g>
<defs>
<linearGradient id="paint0_linear_9974_6500" x1="18.9998" y1="2.66687" x2="18.9998" y2="34.3338" gradientUnits="userSpaceOnUse">
<stop stop-color="#61C02F"/>
<stop offset="1" stop-color="#7BD74A"/>
</linearGradient>
<clipPath id="clip0_9974_6500">
<rect width="38" height="38" fill="white"/>
</clipPath>
</defs>
</svg>
