<svg width="39" height="38" viewBox="0 0 39 38" fill="none" xmlns="http://www.w3.org/2000/svg">
<g clip-path="url(#clip0_9974_6422)">
<path d="M27.625 4.78837C30.0953 6.17804 32.1467 8.17682 33.5729 10.5838C34.9992 12.9908 35.75 15.7212 35.75 18.5005C35.75 21.2799 34.9991 24.0103 33.5728 26.4172C32.1466 28.8242 30.0952 30.823 27.6248 32.2126C25.1545 33.6022 22.3522 34.3338 19.4997 34.3338C16.6473 34.3337 13.845 33.6021 11.3747 32.2124C8.90443 30.8226 6.8531 28.8238 5.42691 26.4168C4.00072 24.0098 3.24993 21.2794 3.25 18.5L3.25813 17.987C3.34913 15.2526 4.16577 12.5878 5.62841 10.2524C7.09106 7.91707 9.14981 5.99083 11.6039 4.66151C14.0581 3.3322 16.8239 2.64516 19.6316 2.66739C22.4394 2.68962 25.1934 3.42036 27.625 4.78837ZM23.5625 20.0834C22.916 20.0834 22.296 20.3336 21.8389 20.779C21.3818 21.2244 21.125 21.8285 21.125 22.4584C21.125 23.0883 21.3818 23.6923 21.8389 24.1377C22.296 24.5831 22.916 24.8334 23.5625 24.8334C24.209 24.8334 24.829 24.5831 25.2861 24.1377C25.7432 23.6923 26 23.0883 26 22.4584C26 21.8285 25.7432 21.2244 25.2861 20.779C24.829 20.3336 24.209 20.0834 23.5625 20.0834ZM25.5239 12.6306C25.2191 12.3338 24.8059 12.167 24.375 12.167C23.9441 12.167 23.5309 12.3338 23.2261 12.6306L13.4761 22.1306C13.1801 22.4292 13.0163 22.8292 13.02 23.2443C13.0237 23.6595 13.1946 24.0566 13.4959 24.3502C13.7972 24.6437 14.2048 24.8102 14.6308 24.8138C15.0569 24.8175 15.4674 24.6579 15.7739 24.3694L25.5239 14.8694C25.8285 14.5725 25.9997 14.1699 25.9997 13.75C25.9997 13.3302 25.8285 12.9275 25.5239 12.6306ZM15.4375 12.1667C14.791 12.1667 14.171 12.4169 13.7139 12.8623C13.2568 13.3077 13 13.9118 13 14.5417C13 15.1716 13.2568 15.7757 13.7139 16.2211C14.171 16.6665 14.791 16.9167 15.4375 16.9167C16.084 16.9167 16.704 16.6665 17.1611 16.2211C17.6182 15.7757 17.875 15.1716 17.875 14.5417C17.875 13.9118 17.6182 13.3077 17.1611 12.8623C16.704 12.4169 16.084 12.1667 15.4375 12.1667Z" fill="url(#paint0_linear_9974_6422)"/>
</g>
<defs>
<linearGradient id="paint0_linear_9974_6422" x1="19.5" y1="2.66687" x2="19.5" y2="34.3338" gradientUnits="userSpaceOnUse">
<stop stop-color="#61C02F"/>
<stop offset="1" stop-color="#7BD74A"/>
</linearGradient>
<clipPath id="clip0_9974_6422">
<rect width="39" height="38" fill="white"/>
</clipPath>
</defs>
</svg>
