<svg width="38" height="38" viewBox="0 0 38 38" fill="none" xmlns="http://www.w3.org/2000/svg">
<g clip-path="url(#clip0_9974_6508)">
<path d="M18.9967 2.66663L19.1835 2.67771L19.277 2.69038L19.3735 2.71096L19.5493 2.76479C19.6707 2.80954 19.7861 2.8691 19.8929 2.94213L20.0575 3.07196L20.4613 3.41713C23.6554 6.0701 27.6922 7.49469 31.8439 7.43404L32.3854 7.41821C32.7394 7.40206 33.0886 7.50514 33.3771 7.71097C33.6656 7.91679 33.8767 8.21345 33.9766 8.55346C34.7547 11.2001 34.9928 13.9762 34.6767 16.7167C34.3607 19.4572 33.497 22.1062 32.137 24.5063C30.777 26.9064 28.9484 29.0087 26.7599 30.6881C24.5714 32.3675 22.0676 33.5899 19.3973 34.2826C19.1367 34.3502 18.8631 34.3502 18.6025 34.2826C15.932 33.5901 13.4281 32.3679 11.2394 30.6885C9.05068 29.0091 7.2219 26.9069 5.86173 24.5068C4.50155 22.1066 3.63774 19.4576 3.32162 16.717C3.0055 13.9764 3.24352 11.2002 4.02154 8.55346C4.12146 8.21345 4.33257 7.91679 4.62106 7.71097C4.90956 7.50514 5.25877 7.40206 5.61279 7.41821C9.94711 7.61634 14.1993 6.18953 17.5369 3.41713L17.9533 3.06088L18.1053 2.94213C18.2121 2.8691 18.3275 2.80954 18.4489 2.76479L18.6262 2.71096C18.6883 2.69597 18.7512 2.68487 18.8146 2.67771L18.9967 2.66663ZM24.8709 14.2139C24.7238 14.0667 24.5492 13.9499 24.357 13.8702C24.1648 13.7905 23.9587 13.7495 23.7507 13.7495C23.5426 13.7495 23.3366 13.7905 23.1443 13.8702C22.9521 13.9499 22.7775 14.0667 22.6305 14.2139L17.4165 19.4262L15.3693 17.3805L15.2205 17.2491C14.9022 17.0031 14.5023 16.8873 14.1018 16.9255C13.7013 16.9636 13.3304 17.1528 13.0643 17.4545C12.7983 17.7562 12.6571 18.1479 12.6693 18.55C12.6816 18.9521 12.8465 19.3344 13.1305 19.6194L16.2971 22.786L16.446 22.9175C16.7506 23.1538 17.131 23.2708 17.5158 23.2466C17.9006 23.2224 18.2633 23.0587 18.536 22.786L24.8693 16.4527L25.0007 16.3039C25.237 15.9992 25.3541 15.6188 25.3299 15.234C25.3057 14.8493 25.1419 14.4865 24.8693 14.2139H24.8709Z" fill="url(#paint0_linear_9974_6508)"/>
</g>
<defs>
<linearGradient id="paint0_linear_9974_6508" x1="18.9991" y1="2.66663" x2="18.9991" y2="34.3333" gradientUnits="userSpaceOnUse">
<stop stop-color="#61C02F"/>
<stop offset="1" stop-color="#7BD74A"/>
</linearGradient>
<clipPath id="clip0_9974_6508">
<rect width="38" height="38" fill="white"/>
</clipPath>
</defs>
</svg>
