<svg width="38" height="38" viewBox="0 0 38 38" fill="none" xmlns="http://www.w3.org/2000/svg">
<g clip-path="url(#clip0_9974_6426)">
<path d="M23.75 10.5833H33.25L30.0833 4.25H7.91667L4.75 10.5833H14.25H23.75Z" fill="url(#paint0_linear_9974_6426)"/>
<path d="M7.9165 32.75L14.25 32.75V26.4167C14.25 25.5768 14.5836 24.7714 15.1775 24.1775C15.7714 23.5836 16.5768 23.25 17.4167 23.25H20.5833C21.4232 23.25 22.2286 23.5836 22.8225 24.1775C23.4164 24.7714 23.75 25.5768 23.75 26.4167V32.75L30.0835 32.75V24.7146L29.9831 16.6792C29.5088 16.8351 29.0086 16.9167 28.5 16.9167C27.2402 16.9167 26.032 16.4162 25.1412 15.5254C24.2504 14.6346 23.75 13.4264 23.75 12.1667C23.75 13.4264 23.2496 14.6346 22.3588 15.5254C21.468 16.4162 20.2598 16.9167 19 16.9167C17.7402 16.9167 16.532 16.4162 15.6412 15.5254C14.7504 14.6346 14.25 13.4264 14.25 12.1667C14.25 13.4264 13.7496 14.6346 12.8588 15.5254C11.968 16.4162 10.7598 16.9167 9.5 16.9167C8.99139 16.9167 8.49119 16.8351 8.0169 16.6792L7.9165 32.75Z" fill="url(#paint1_linear_9974_6426)"/>
<path d="M4.75 32.75H33.25M4.75 10.5833V12.1667C4.75 13.4264 5.25045 14.6346 6.14124 15.5254C7.03204 16.4162 8.24022 16.9167 9.5 16.9167M4.75 10.5833H33.25M4.75 10.5833L7.91667 4.25H30.0833L33.25 10.5833M4.75 10.5833H14.25M9.5 16.9167C10.7598 16.9167 11.968 16.4162 12.8588 15.5254C13.7496 14.6346 14.25 13.4264 14.25 12.1667M9.5 16.9167C8.99139 16.9167 8.49119 16.8351 8.0169 16.6792L7.9165 32.75L14.25 32.75V26.4167C14.25 25.5768 14.5836 24.7714 15.1775 24.1775C15.7714 23.5836 16.5768 23.25 17.4167 23.25H20.5833C21.4232 23.25 22.2286 23.5836 22.8225 24.1775C23.4164 24.7714 23.75 25.5768 23.75 26.4167V32.75L30.0835 32.75V24.7146L29.9831 16.6792C29.5088 16.8351 29.0086 16.9167 28.5 16.9167M14.25 12.1667V10.5833M14.25 12.1667C14.25 13.4264 14.7504 14.6346 15.6412 15.5254C16.532 16.4162 17.7402 16.9167 19 16.9167C20.2598 16.9167 21.468 16.4162 22.3588 15.5254C23.2496 14.6346 23.75 13.4264 23.75 12.1667M14.25 10.5833H23.75M23.75 12.1667V10.5833M23.75 12.1667C23.75 13.4264 24.2504 14.6346 25.1412 15.5254C26.032 16.4162 27.2402 16.9167 28.5 16.9167M23.75 10.5833H33.25M28.5 16.9167C29.7598 16.9167 30.968 16.4162 31.8588 15.5254C32.7496 14.6346 33.25 13.4264 33.25 12.1667V10.5833" stroke="url(#paint2_linear_9974_6426)" stroke-width="2" stroke-linecap="round" stroke-linejoin="round"/>
</g>
<defs>
<linearGradient id="paint0_linear_9974_6426" x1="19" y1="4.25" x2="19" y2="32.75" gradientUnits="userSpaceOnUse">
<stop stop-color="#61C02F"/>
<stop offset="1" stop-color="#7BD74A"/>
</linearGradient>
<linearGradient id="paint1_linear_9974_6426" x1="19" y1="4.25" x2="19" y2="32.75" gradientUnits="userSpaceOnUse">
<stop stop-color="#61C02F"/>
<stop offset="1" stop-color="#7BD74A"/>
</linearGradient>
<linearGradient id="paint2_linear_9974_6426" x1="19" y1="4.25" x2="19" y2="32.75" gradientUnits="userSpaceOnUse">
<stop stop-color="#61C02F"/>
<stop offset="1" stop-color="#7BD74A"/>
</linearGradient>
<clipPath id="clip0_9974_6426">
<rect width="38" height="38" fill="white"/>
</clipPath>
</defs>
</svg>
