<svg width="186" height="44" viewBox="0 0 186 44" fill="none" xmlns="http://www.w3.org/2000/svg">
<path d="M160.719 43.741C166.091 44.5471 171.079 43.4802 175.652 40.4203C175.965 40.2105 176.435 40.0392 176.377 39.5515C176.321 39.0849 175.848 38.9803 175.499 38.824C167.77 35.367 160.051 35.4559 152.351 38.9267C152.036 39.0683 151.65 39.1703 151.584 39.7579C154.212 41.8821 157.243 43.1238 160.719 43.741Z" fill="white"/>
<path d="M172.964 35.5004C174.601 36.0073 176.207 36.6162 177.713 37.449C178.519 37.8947 179.004 37.7011 179.576 37.0519C181.503 34.8625 183.012 32.4171 184.008 29.6341C184.502 28.2539 184.489 28.1959 183.203 27.5379C177.498 24.6186 171.466 23.3324 165.114 23.6039C164.479 23.6311 164.073 23.913 163.729 24.4081C159.861 29.9618 154.639 33.2137 148.142 34.3185C146.725 34.5595 146.668 34.772 147.579 35.9208C147.663 36.026 147.749 36.1287 147.834 36.2326C149.609 38.4014 149.279 37.9113 151.213 37.016C158.233 33.7667 165.426 33.1881 172.964 35.5004Z" fill="white"/>
<path d="M171.742 21.6493C175.938 22.2109 179.925 23.4915 183.745 25.3677C184.835 25.9031 185.038 25.7999 185.206 24.5443C185.523 22.1657 185.39 19.796 184.941 17.4426C184.849 16.964 184.567 16.6695 184.171 16.4511C179.466 13.8586 174.423 12.7747 169.128 12.8061C168.337 12.8108 167.92 13.2101 167.81 14.0055C167.521 16.1038 166.889 18.0991 166.151 20.0673C165.821 20.9471 166.028 21.2307 166.964 21.274L167.006 21.2759C168.53 21.3463 170.055 21.4167 171.742 21.6493Z" fill="white"/>
<path d="M156.988 28.2932C158.457 27.1799 159.88 26.0189 160.984 24.377C160.389 24.1032 159.91 24.231 159.445 24.3263C156.413 24.9488 153.54 26.0486 150.717 27.3447C149.19 28.0457 148.107 29.0875 147.461 30.6582C147.301 31.0474 146.894 31.4307 147.222 31.8656C147.527 32.2716 148.014 32.0945 148.421 32.0171C151.488 31.433 154.323 30.2619 156.988 28.2932Z" fill="white"/>
<path d="M160.975 14.263C159.377 14.7748 157.837 15.4407 156.333 16.1955L156.317 16.2034C155.736 16.4952 155.156 16.7863 154.81 17.4232C153.732 19.4065 152.624 21.3726 151.543 23.3547C151.38 23.6554 151.092 23.9747 151.38 24.3654C151.736 24.5355 152.043 24.3511 152.333 24.2319C155.515 22.9246 158.796 22.0215 162.199 21.6152C162.755 21.5488 163.169 21.2911 163.442 20.7521C164.458 18.7524 165.182 16.6458 165.598 14.4312C165.784 13.4418 165.507 13.1628 164.56 13.3687C163.409 13.6191 162.272 13.9345 160.975 14.263Z" fill="white"/>
<path d="M144.436 30.4651C144.616 30.6974 144.856 30.754 145.003 30.4937C145.721 29.2208 146.806 28.1129 146.782 26.4917C146.726 22.6128 146.003 18.8578 144.791 15.1979C144.689 14.8904 144.656 14.514 144.262 14.4118C142.64 16.4606 141.812 24.5118 144.436 30.4651Z" fill="white"/>
<path d="M152.735 10.314C152.478 8.69774 152.05 7.12686 151.529 5.58473C151.169 4.51855 150.89 4.44801 150.084 5.16118C148.448 6.60905 147.096 8.31045 145.927 10.1775C145.596 10.7066 145.549 11.1881 145.792 11.7985C146.945 14.6963 147.863 17.6664 148.327 20.782C148.435 21.5079 148.374 22.3459 148.978 22.9881C149.508 22.695 149.711 22.1769 149.968 21.7245C150.867 20.1404 151.706 18.5178 152.643 16.9586C153.202 16.0293 153.327 15.0622 153.213 14.0267C153.082 12.8442 152.924 11.6651 152.735 10.314Z" fill="white"/>
<path d="M154.599 8.66586C154.915 9.52751 154.721 10.5579 155.553 11.578C157.772 7.73375 159.876 4.01325 161.854 0.20775C161.592 0.0597647 161.533 -0.0043874 161.479 0.000232163C158.656 0.24229 156.046 1.18273 153.589 2.61483C153.056 2.92565 153.038 3.36318 153.233 3.92014C153.76 5.41905 154.263 6.92782 154.599 8.66586Z" fill="white"/>
<path d="M159.577 8.89011C159.072 9.80483 158.56 10.7149 158.068 11.6368C157.9 11.9517 157.61 12.3062 157.894 12.6625C158.186 13.0273 158.569 12.7763 158.894 12.6526C160.807 11.9266 162.766 11.3744 164.775 11.0469C165.636 10.9065 165.934 10.4835 165.928 9.62077C165.909 7.10494 165.389 4.6959 164.568 2.34734C164.452 2.01817 164.404 1.54583 163.941 1.5391C163.553 1.53347 163.441 1.93892 163.283 2.22285C162.067 4.39933 160.861 6.58162 159.577 8.89011Z" fill="white"/>
<path d="M178.733 5.84164C175.515 2.76514 171.777 0.783676 167.437 0.0799619C166.171 -0.12538 165.997 0.0923609 166.482 1.35026C167.452 3.8676 167.915 6.49427 168.119 9.18016C168.218 10.4854 168.313 10.6161 169.614 10.598C173.932 10.5378 178.08 11.3942 182.095 13.0119C182.443 13.1519 182.844 13.4759 183.194 13.1209C183.592 12.7183 183.251 12.2911 183.07 11.9113C181.998 9.66257 180.548 7.69977 178.733 5.84164Z" fill="white"/>
<path d="M9.5764 20.6304C8.57218 20.6304 7.85866 19.8702 7.85866 18.8386C7.85866 17.834 8.57218 17.101 9.5764 17.101C10.5806 17.101 11.2677 17.834 11.2677 18.8386C11.2677 19.8702 10.5806 20.6304 9.5764 20.6304ZM13.9632 20.6304C12.959 20.6304 12.2191 19.8702 12.2191 18.8386C12.2191 17.834 12.959 17.101 13.9632 17.101C14.9146 17.101 15.6281 17.834 15.6281 18.8386C15.6281 19.8702 14.9146 20.6304 13.9632 20.6304ZM26.331 29.8067C26.6745 29.8067 26.8595 30.2954 26.8595 31.3814C26.8595 32.3587 26.6745 32.766 26.331 32.766C24.4811 32.766 23.2919 32.223 22.5784 31.2728C21.7856 32.2501 20.5171 32.766 18.8258 32.766H6.90729C2.81115 32.766 0.379883 30.5126 0.379883 27.2819C0.379883 25.6801 0.829138 24.024 1.22554 22.938L4.02678 23.6982C3.68323 25.1371 3.52467 25.8701 3.52467 26.6031C3.52467 28.6936 5.00457 29.8067 7.4094 29.8067H17.848C19.5921 29.8067 20.3585 29.1009 20.3585 27.0647V21.3906H23.5562V27.0918C23.5562 28.9923 24.5868 29.8067 26.331 29.8067Z" fill="white"/>
<path d="M37.7903 29.8067H40.1423C40.4858 29.8067 40.6708 30.2954 40.6708 31.3814C40.6708 32.3587 40.4858 32.766 40.1423 32.766H26.3211V29.8067H34.6191V29.5895C34.6191 26.1145 32.9277 24.2412 27.2724 22.9109V19.7888L34.7512 12.3771L36.8389 14.549L30.5229 20.8204C35.9932 22.558 37.7903 25.3543 37.7903 29.7524V29.8067Z" fill="white"/>
<path d="M57.7012 27.2276V21.3906H60.9252V28.0692C60.9252 31.0013 58.9168 32.766 55.957 32.766C54.5828 32.766 53.2879 32.3587 52.363 31.5443C51.438 32.413 50.196 32.766 48.584 32.766C47.104 32.766 45.7299 32.5216 44.8313 31.49C44.065 32.2773 42.8493 32.766 40.7352 32.766H40.1538V29.8067H40.7352C42.268 29.8067 42.9286 29.2909 42.9286 27.2004V23.3724H46.1263V27.9334C46.1263 29.2094 46.7341 29.8067 48.1611 29.8067C49.7203 29.8067 50.3017 29.1551 50.3017 27.2004V23.3724H53.4993V28.042C53.4993 29.2366 54.2128 29.8067 55.6135 29.8067C57.1991 29.8067 57.7012 29.2094 57.7012 27.2276Z" fill="white"/>
<path d="M69.8042 32.766C65.4438 32.766 63.9111 31.1099 63.9111 27.662V12.2414H67.1087V27.5805C67.1087 29.1009 67.9279 29.8067 69.8042 29.8067C70.1478 29.8067 70.3328 30.2954 70.3328 31.3814C70.3328 32.3587 70.1478 32.766 69.8042 32.766Z" fill="white"/>
<path d="M69.8065 32.766V29.8067C71.8149 29.8067 72.4228 29.1551 72.4228 26.6846V21.3906H75.6468V27.119C75.6468 31.3814 73.7177 32.766 69.8065 32.766ZM72.9777 38.4944C71.9735 38.4944 71.2864 37.7614 71.2864 36.7569C71.2864 35.7252 71.9735 34.965 72.9777 34.965C74.0084 34.965 74.6426 35.7252 74.6426 36.7569C74.6426 37.7614 74.0084 38.4944 72.9777 38.4944Z" fill="white"/>
<path d="M93.7638 37.7342C88.1349 37.7342 84.4087 35.7252 84.4087 31.1099C84.4087 30.214 84.5673 29.0737 85.0958 27.3905L87.8971 28.1235C87.6592 29.2094 87.5535 30.0239 87.5535 30.6755C87.5535 33.4447 89.6677 34.6935 93.7638 34.6935C97.6221 34.6935 99.5777 33.7433 99.5777 32.5216C99.5777 30.7841 93.5524 29.9968 93.5524 25.7072C93.5524 23.291 95.5872 21.0919 99.3663 21.0919C100.608 21.0919 101.639 21.282 102.485 21.4991L101.903 24.5398C101.216 24.3498 100.159 24.1597 99.2077 24.1597C97.675 24.1597 96.8822 24.7842 96.8822 25.5986C96.8822 27.7434 102.881 28.3135 102.881 32.2773C102.881 35.318 99.7363 37.7342 93.7638 37.7342ZM91.4911 43.4626C90.4869 43.4626 89.7734 42.7296 89.7734 41.7251C89.7734 40.6934 90.4869 39.9333 91.4911 39.9333C92.4953 39.9333 93.1824 40.6934 93.1824 41.7251C93.1824 42.7296 92.4953 43.4626 91.4911 43.4626ZM95.8779 43.4626C94.8737 43.4626 94.1338 42.7296 94.1338 41.7251C94.1338 40.6934 94.8737 39.9333 95.8779 39.9333C96.8293 39.9333 97.5428 40.6934 97.5428 41.7251C97.5428 42.7296 96.8293 43.4626 95.8779 43.4626Z" fill="white"/>
<path d="M110.578 29.8067H113.353C113.696 29.8067 113.881 30.2954 113.881 31.3814C113.881 32.3587 113.696 32.766 113.353 32.766H110.446V32.6845C109.97 35.8609 108.094 37.4084 104.473 37.7614L104.05 34.8021C106.402 34.4763 107.38 33.5261 107.38 30.8655V21.3906H110.578V29.8067Z" fill="white"/>
<path d="M124.39 32.766H113.344V29.8067H121.536C121.615 29.3995 121.668 28.9651 121.668 28.5036C121.668 25.6801 120.188 24.1326 117.466 24.1326C116.568 24.1326 115.748 24.2683 114.797 24.5127L114.084 21.6892C115.326 21.2548 116.594 21.0919 117.625 21.0919C122.725 21.0919 124.866 24.0783 124.866 28.6122C124.866 29.8882 124.707 31.2999 124.39 32.766ZM118.708 38.4944C117.704 38.4944 117.017 37.7614 117.017 36.7569C117.017 35.7252 117.704 34.965 118.708 34.965C119.739 34.965 120.373 35.7252 120.373 36.7569C120.373 37.7614 119.739 38.4944 118.708 38.4944Z" fill="white"/>
<path d="M129.579 9.44502H131.747V10.9654H127.228V9.44502H128.1C127.888 9.06493 127.782 8.6577 127.782 8.25047C127.782 7.00162 128.707 6.13285 130.161 6.13285C130.637 6.13285 131.139 6.2143 131.509 6.32289L131.244 7.76179C131.007 7.70749 130.716 7.65319 130.399 7.65319C129.764 7.65319 129.315 7.95183 129.315 8.57625C129.315 8.87489 129.421 9.14638 129.579 9.44502ZM131.059 32.766H127.862V12.2414H131.059V32.766Z" fill="white"/>
</svg>
