<svg width="149" height="33" viewBox="0 0 149 33" fill="none" xmlns="http://www.w3.org/2000/svg">
<path d="M13.9261 32.8067C18.0894 33.4113 21.9547 32.6111 25.4981 30.3162C25.741 30.1588 26.1049 30.0304 26.06 29.6646C26.017 29.3147 25.6505 29.2362 25.3797 29.1189C19.3903 26.5262 13.409 26.5929 7.44163 29.196C7.19815 29.3022 6.89892 29.3787 6.84773 29.8194C8.88426 31.4125 11.233 32.3438 13.9261 32.8067Z" fill="#7BD34D"/>
<path d="M23.4151 26.6263C24.6841 27.0065 25.9288 27.4631 27.0955 28.0877C27.72 28.422 28.0963 28.2768 28.5391 27.7899C30.0327 26.1478 31.2016 24.3138 31.9736 22.2265C32.3565 21.1914 32.3461 21.1479 31.3498 20.6544C26.9292 18.4649 22.2547 17.5003 17.3323 17.7039C16.84 17.7243 16.5258 17.9357 16.2587 18.3071C13.262 22.4723 9.21506 24.9113 4.18034 25.7398C3.08208 25.9206 3.03837 26.08 3.74424 26.9416C3.80887 27.0205 3.87574 27.0975 3.94161 27.1754C5.31738 28.802 5.06151 28.4344 6.56041 27.763C12.0002 25.326 17.5738 24.8921 23.4151 26.6263Z" fill="#7BD34D"/>
<path d="M22.4687 16.238C25.7201 16.6591 28.81 17.6196 31.7696 19.0267C32.6142 19.4283 32.7716 19.3509 32.9016 18.4092C33.1479 16.6252 33.0447 14.848 32.6965 13.0829C32.6256 12.724 32.4068 12.5031 32.0997 12.3393C28.4537 10.3949 24.5461 9.58203 20.4425 9.60557C19.8299 9.60909 19.5066 9.90858 19.4217 10.5051C19.1976 12.0788 18.7075 13.5753 18.1355 15.0514C17.8799 15.7113 18.0404 15.924 18.766 15.9564L18.7987 15.9579C19.9794 16.0107 21.1609 16.0635 22.4687 16.238Z" fill="#7BD34D"/>
<path d="M11.0354 21.2208C12.1733 20.3859 13.2763 19.5152 14.1321 18.2837C13.6707 18.0784 13.2995 18.1742 12.9394 18.2457C10.5899 18.7126 8.3637 19.5374 6.17594 20.5095C4.99261 21.0352 4.15295 21.8166 3.65284 22.9946C3.52893 23.2865 3.21324 23.574 3.46701 23.9001C3.70396 24.2047 4.08123 24.0718 4.39626 24.0138C6.77291 23.5757 8.97027 22.6974 11.0354 21.2208Z" fill="#7BD34D"/>
<path d="M14.125 10.6982C12.8863 11.0821 11.6931 11.5815 10.5278 12.1476L10.5156 12.1535C10.0651 12.3724 9.61577 12.5907 9.34744 13.0684C8.51184 14.5559 7.65337 16.0304 6.81616 17.517C6.68914 17.7425 6.46617 17.982 6.68976 18.275C6.965 18.4026 7.20328 18.2643 7.42802 18.1749C9.89417 17.1944 12.436 16.5171 15.0734 16.2124C15.5039 16.1626 15.8247 15.9693 16.0369 15.565C16.8238 14.0653 17.3846 12.4853 17.7075 10.8244C17.8518 10.0824 17.6367 9.87306 16.9033 10.0275C16.0114 10.2153 15.1296 10.4518 14.125 10.6982Z" fill="#7BD34D"/>
<path d="M1.30881 22.8498C1.44799 23.024 1.63416 23.0665 1.74787 22.8713C2.30403 21.9166 3.14493 21.0857 3.12659 19.8697C3.0827 16.9606 2.52272 14.1443 1.58317 11.3994C1.50422 11.1687 1.47932 10.8865 1.17377 10.8098C-0.0833198 12.3464 -0.725009 18.3848 1.30881 22.8498Z" fill="#7BD34D"/>
<path d="M7.7395 7.73651C7.54057 6.52428 7.20906 5.34612 6.80509 4.18952C6.52579 3.38989 6.30972 3.33699 5.68523 3.87186C4.41741 4.95777 3.36997 6.23381 2.4639 7.63411C2.20716 8.0309 2.17098 8.39207 2.35924 8.84988C3.25288 11.0232 3.96409 13.2508 4.32353 15.5875C4.40727 16.1319 4.35976 16.7604 4.8278 17.242C5.23888 17.0223 5.39626 16.6337 5.59529 16.2944C6.29227 15.1063 6.94228 13.8893 7.66856 12.7199C8.10144 12.023 8.19794 11.2976 8.1096 10.521C8.00872 9.63413 7.88618 8.74977 7.7395 7.73651Z" fill="#7BD34D"/>
<path d="M9.18359 6.50037C9.42858 7.14661 9.27855 7.91937 9.92293 8.6845C11.643 5.80129 13.2734 3.01091 14.8063 0.156789C14.6031 0.0458001 14.5571 -0.00231399 14.5153 0.00115068C12.3277 0.182694 10.3056 0.888022 8.40138 1.9621C7.98809 2.19522 7.97397 2.52336 8.12562 2.94108C8.53375 4.06527 8.9239 5.19684 9.18359 6.50037Z" fill="#7BD34D"/>
<path d="M13.0414 6.66856C12.6506 7.3546 12.2535 8.03714 11.8724 8.7286C11.7422 8.96474 11.5172 9.23059 11.7377 9.49786C11.9634 9.77147 12.2602 9.58318 12.5125 9.49045C13.9945 8.94593 15.5131 8.53174 17.0692 8.28614C17.7365 8.18083 17.9677 7.86358 17.9627 7.21655C17.9482 5.32968 17.5457 3.5229 16.9088 1.76148C16.8196 1.5146 16.7818 1.16035 16.423 1.1553C16.123 1.15108 16.0361 1.45517 15.9132 1.66811C14.971 3.30047 14.0363 4.93719 13.0414 6.66856Z" fill="#7BD34D"/>
<path d="M27.8858 4.3822C25.3921 2.07483 22.4954 0.588734 19.1328 0.0609479C18.1516 -0.0930586 18.0163 0.0702473 18.392 1.01367C19.1441 2.90168 19.503 4.87168 19.661 6.8861C19.7379 7.86502 19.8111 7.96307 20.8197 7.94948C24.1654 7.90436 27.3798 8.54665 30.4914 9.7599C30.7608 9.86492 31.0714 10.1079 31.343 9.84163C31.6509 9.53972 31.3872 9.21931 31.2468 8.93447C30.4158 7.2479 29.2923 5.7758 27.8858 4.3822Z" fill="#7BD34D"/>
<path d="M42.3879 26.0536L46.3627 10.6617L50.7027 10.6617L54.6462 26.0536L51.819 26.0536L48.5223 12.3603L48.5431 12.3603L45.2151 26.0536L42.3879 26.0536ZM44.9543 22.3124L44.9543 20.1136L52.1111 20.1136L52.1111 22.3124L44.9543 22.3124Z" fill="#68CC34"/>
<path d="M63.5013 24.9594C64.1551 25.0219 64.7289 25.1435 65.2227 25.3241C65.7165 25.5048 66.1025 25.7722 66.3807 26.1266C66.6589 26.4878 66.798 26.9672 66.798 27.5647C66.798 28.2316 66.572 28.8082 66.1199 29.2946C65.6678 29.7809 65.0036 30.156 64.1273 30.42C63.2579 30.684 62.1868 30.816 60.914 30.816C59.0639 30.816 57.6416 30.5486 56.647 30.0136C55.6525 29.4856 55.1552 28.7666 55.1552 27.8564C55.1552 27.5994 55.1865 27.3667 55.2491 27.1582C55.3117 26.9498 55.3882 26.7761 55.4786 26.6372L57.9928 27.0019C57.9511 27.0575 57.9094 27.1443 57.8677 27.2624C57.8259 27.3875 57.8051 27.5369 57.8051 27.7106C57.8051 28.1413 58.0937 28.4504 58.671 28.638C59.2552 28.8326 60.0307 28.9298 60.9975 28.9298C61.7069 28.9298 62.2981 28.8812 62.771 28.7839C63.2509 28.6867 63.6126 28.5477 63.856 28.3671C64.1064 28.1864 64.2316 27.9746 64.2316 27.7314C64.2316 27.3701 64.0681 27.1374 63.7412 27.0332C63.4144 26.929 63.0249 26.8595 62.5728 26.8248L58.3684 26.4392C57.6173 26.3628 56.9983 26.1404 56.5114 25.7722C56.0315 25.404 55.7916 24.9177 55.7916 24.3133C55.7916 23.9451 55.8889 23.6047 56.0837 23.292C56.2854 22.9794 56.5149 22.7189 56.7722 22.5104C57.0296 22.2951 57.2487 22.1631 57.4295 22.1144L58.9944 22.8856C58.8483 22.9064 58.6744 23.0002 58.4727 23.167C58.278 23.3337 58.1806 23.5317 58.1806 23.761C58.1806 23.9763 58.278 24.157 58.4727 24.3029C58.6675 24.4418 59.0431 24.5391 59.5995 24.5947L63.5013 24.9594ZM64.7428 14.9864L67.2049 14.9864L66.2033 19.2799C66.0156 20.0858 65.713 20.8083 65.2957 21.4475C64.8784 22.0867 64.322 22.5903 63.6265 22.9586C62.931 23.3268 62.0546 23.5109 60.9975 23.5109C59.8985 23.5109 58.9492 23.3337 58.1493 22.9794C57.3565 22.6181 56.7444 22.1144 56.3132 21.4683C55.882 20.8153 55.6664 20.065 55.6664 19.2174C55.6664 18.349 55.8854 17.5848 56.3236 16.9248C56.7687 16.2578 57.3773 15.7368 58.1493 15.3616C58.9283 14.9864 59.8081 14.7989 60.7888 14.7989C61.5817 14.7989 62.2946 14.9309 62.9275 15.1949C63.5604 15.4519 64.0647 15.7889 64.4402 16.2057C64.8228 16.6226 65.0279 17.0672 65.0558 17.5396L64.4402 17.6542L64.7428 14.9864ZM60.987 21.3954C61.5226 21.3954 61.9851 21.3086 62.3746 21.1349C62.764 20.9612 63.0666 20.7111 63.2822 20.3846C63.4978 20.0511 63.6056 19.6481 63.6056 19.1757C63.6056 18.7102 63.4978 18.3108 63.2822 17.9773C63.0666 17.6438 62.764 17.3902 62.3746 17.2166C61.9851 17.0359 61.526 16.9456 60.9975 16.9456C60.4828 16.9456 60.0272 17.0359 59.6308 17.2166C59.2343 17.3972 58.9214 17.6577 58.6918 17.9981C58.4693 18.3316 58.358 18.7311 58.358 19.1966C58.358 19.662 58.4658 20.0615 58.6814 20.395C58.904 20.7215 59.21 20.9716 59.5995 21.1453C59.9959 21.312 60.4584 21.3954 60.987 21.3954Z" fill="#68CC34"/>
<path d="M68.4265 26.0536L68.4265 14.9864L71.1703 14.9864L71.1703 18.6651L70.5339 18.3108C70.6034 17.8314 70.7321 17.3798 70.9199 16.956C71.1077 16.5253 71.3581 16.1501 71.671 15.8306C71.984 15.504 72.3631 15.2504 72.8082 15.0698C73.2533 14.8892 73.761 14.7989 74.3314 14.7989C74.7834 14.7989 75.1382 14.8336 75.3955 14.9031C75.6598 14.9656 75.8232 15.0177 75.8858 15.0594L75.3851 17.5709C75.3155 17.5222 75.1729 17.4632 74.9573 17.3937C74.7487 17.3173 74.467 17.2791 74.1123 17.2791C73.5489 17.2791 73.076 17.3763 72.6934 17.5709C72.3179 17.7584 72.0188 18.0155 71.7962 18.342C71.5737 18.6616 71.4137 19.0159 71.3163 19.405C71.219 19.7871 71.1703 20.1692 71.1703 20.5513L71.1703 26.0536L68.4265 26.0536Z" fill="#68CC34"/>
<path d="M76.9381 26.0536L76.9381 14.9864L79.6505 14.9864L79.6505 26.0536L76.9381 26.0536ZM78.3047 12.9439C77.8596 12.9439 77.4701 12.8258 77.1363 12.5896C76.8094 12.3464 76.646 12.0095 76.646 11.5788C76.646 11.155 76.8094 10.825 77.1363 10.5888C77.4701 10.3526 77.8596 10.2344 78.3047 10.2344C78.7429 10.2344 79.1254 10.3526 79.4523 10.5888C79.7792 10.825 79.9427 11.155 79.9427 11.5788C79.9427 12.0095 79.7792 12.3464 79.4523 12.5896C79.1254 12.8258 78.7429 12.9439 78.3047 12.9439Z" fill="#68CC34"/>
<path d="M87.9823 26.2829C87.1199 26.2829 86.3201 26.0606 85.5828 25.6159C84.8525 25.1643 84.2614 24.5495 83.8093 23.7714C83.3641 22.9933 83.1416 22.1179 83.1416 21.1453C83.1416 21.1175 83.1416 21.0932 83.1416 21.0723C83.1416 21.0446 83.1416 21.0202 83.1416 20.9994L84.4978 20.9681C84.4978 20.982 84.4978 20.9994 84.4978 21.0202C84.4978 21.0411 84.4978 21.0584 84.4978 21.0723C84.4978 21.6142 84.6335 22.0971 84.9047 22.5209C85.1759 22.9377 85.5272 23.2677 85.9584 23.5109C86.3966 23.7471 86.8626 23.8652 87.3564 23.8652C88.1562 23.8652 88.8378 23.5908 89.4012 23.0419C89.9645 22.4931 90.2462 21.642 90.2462 20.4888C90.2462 19.3286 89.9645 18.481 89.4012 17.946C88.8448 17.4041 88.1632 17.1332 87.3564 17.1332C86.8695 17.1332 86.407 17.2513 85.9688 17.4875C85.5376 17.7168 85.1829 18.0363 84.9047 18.4462C84.6335 18.8561 84.4978 19.3355 84.4978 19.8843L83.1416 19.8218C83.1416 18.8422 83.3641 17.9738 83.8093 17.2166C84.2614 16.4593 84.8525 15.8688 85.5828 15.445C86.3201 15.0142 87.1199 14.7989 87.9823 14.7989C88.8795 14.7989 89.7141 15.0212 90.4862 15.4658C91.2651 15.9035 91.8911 16.5461 92.364 17.3937C92.8439 18.2343 93.0839 19.266 93.0839 20.4888C93.0839 21.7462 92.8509 22.8057 92.3849 23.6672C91.9189 24.5287 91.2999 25.1817 90.5279 25.6263C89.7559 26.064 88.9074 26.2829 87.9823 26.2829ZM81.7436 26.0536L81.7436 9.7655L84.4978 9.7655L84.4978 26.0536L81.7436 26.0536Z" fill="#68CC34"/>
<path d="M98.5265 26.2829C97.6988 26.2829 96.972 26.1543 96.3461 25.8973C95.7201 25.6333 95.2298 25.2547 94.875 24.7614C94.5203 24.2681 94.343 23.6741 94.343 22.9794C94.343 22.2221 94.5482 21.6003 94.9585 21.114C95.3758 20.6208 95.9357 20.2421 96.6382 19.9781C97.3406 19.7072 98.1196 19.5335 98.9751 19.4571C100.241 19.332 101.124 19.2139 101.625 19.1028C102.133 18.9847 102.387 18.7971 102.387 18.54C102.387 18.5331 102.387 18.5296 102.387 18.5296C102.387 18.5227 102.387 18.5192 102.387 18.5192C102.387 18.0329 102.167 17.6577 101.729 17.3937C101.291 17.1297 100.672 16.9977 99.8723 16.9977C99.0307 16.9977 98.3839 17.1471 97.9318 17.4458C97.4867 17.7376 97.2641 18.2031 97.2641 18.8422L94.5516 18.8422C94.5516 17.9738 94.7812 17.2409 95.2402 16.6434C95.7062 16.039 96.3426 15.5804 97.1494 15.2678C97.9562 14.9552 98.8708 14.7989 99.8932 14.7989C100.846 14.7989 101.719 14.9413 102.512 15.2261C103.305 15.511 103.941 15.9417 104.421 16.5183C104.901 17.095 105.141 17.814 105.141 18.6755C105.141 18.8214 105.141 18.9673 105.141 19.1132C105.141 19.2591 105.141 19.405 105.141 19.5509L105.141 23.7193C105.141 23.9833 105.148 24.2438 105.162 24.5009C105.183 24.751 105.221 24.9768 105.276 25.1782C105.346 25.4006 105.429 25.5881 105.527 25.741C105.624 25.8938 105.701 25.998 105.756 26.0536L103.044 26.0536C102.995 26.005 102.926 25.9112 102.835 25.7722C102.752 25.6263 102.675 25.4596 102.606 25.272C102.536 25.0636 102.484 24.8413 102.449 24.6051C102.414 24.3619 102.397 24.0944 102.397 23.8027L102.939 24.1778C102.731 24.6016 102.411 24.9733 101.98 25.2929C101.555 25.6055 101.048 25.8487 100.457 26.0223C99.8653 26.196 99.222 26.2829 98.5265 26.2829ZM99.1942 24.1257C99.7645 24.1257 100.293 24.0284 100.78 23.8339C101.267 23.6394 101.66 23.3407 101.959 22.9377C102.258 22.5278 102.407 22.0033 102.407 21.3641L102.407 19.8843L103.075 20.6347C102.63 20.8014 102.094 20.9403 101.468 21.0515C100.843 21.1557 100.21 21.2391 99.5697 21.3016C98.749 21.378 98.13 21.5204 97.7127 21.7289C97.3024 21.9373 97.0972 22.2777 97.0972 22.7501C97.0972 23.2087 97.2711 23.5526 97.6188 23.7818C97.9666 24.0111 98.4917 24.1257 99.1942 24.1257Z" fill="#68CC34"/>
<path d="M111.538 26.2829C110.877 26.2829 110.248 26.2099 109.65 26.064C109.058 25.9181 108.53 25.6993 108.064 25.4075C107.605 25.1157 107.24 24.7544 106.968 24.3237C106.704 23.886 106.572 23.3823 106.572 22.8127C106.572 22.771 106.572 22.7293 106.572 22.6876C106.572 22.6459 106.572 22.6077 106.572 22.573L109.305 22.573C109.305 22.6077 109.305 22.639 109.305 22.6668C109.305 22.6876 109.305 22.7189 109.305 22.7606C109.305 23.2121 109.511 23.5526 109.921 23.7818C110.338 24.0041 110.905 24.1153 111.621 24.1153C112.011 24.1153 112.376 24.0736 112.717 23.9902C113.065 23.9069 113.343 23.7783 113.551 23.6047C113.767 23.431 113.875 23.2087 113.875 22.9377C113.875 22.5 113.649 22.1874 113.197 21.9998C112.752 21.8122 112.049 21.642 111.089 21.4892C110.561 21.3989 110.039 21.2773 109.524 21.1244C109.01 20.9716 108.54 20.7667 108.116 20.5096C107.699 20.2526 107.361 19.933 107.104 19.5509C106.854 19.1688 106.729 18.7033 106.729 18.1544C106.729 17.425 106.944 16.8136 107.375 16.3203C107.813 15.8201 108.398 15.4415 109.128 15.1844C109.865 14.9274 110.676 14.7989 111.559 14.7989C112.407 14.7989 113.197 14.9378 113.927 15.2157C114.657 15.4936 115.245 15.8931 115.69 16.4141C116.142 16.9352 116.368 17.5639 116.368 18.3003C116.368 18.3281 116.368 18.3594 116.368 18.3941C116.368 18.4219 116.368 18.4462 116.368 18.4671L113.656 18.4671C113.656 18.4462 113.656 18.4254 113.656 18.4046C113.656 18.3837 113.656 18.3594 113.656 18.3316C113.656 18.012 113.555 17.7515 113.353 17.55C113.152 17.3486 112.891 17.1992 112.571 17.1019C112.251 17.0047 111.914 16.956 111.559 16.956C111.246 16.956 110.922 16.9908 110.589 17.0602C110.255 17.1228 109.977 17.2374 109.754 17.4041C109.531 17.5639 109.42 17.7897 109.42 18.0815C109.42 18.3594 109.535 18.5852 109.764 18.7589C109.994 18.9326 110.314 19.0784 110.724 19.1966C111.135 19.3077 111.608 19.4084 112.143 19.4988C112.651 19.5821 113.162 19.6968 113.677 19.8427C114.198 19.9886 114.675 20.1831 115.106 20.4262C115.537 20.6694 115.885 20.989 116.149 21.385C116.42 21.774 116.556 22.2569 116.556 22.8335C116.556 23.4449 116.417 23.9659 116.139 24.3967C115.861 24.8274 115.481 25.1852 115.002 25.47C114.529 25.7479 113.993 25.9529 113.395 26.0849C112.797 26.2169 112.178 26.2829 111.538 26.2829Z" fill="#68CC34"/>
<path d="M118.194 26.0536L118.194 9.7655L120.802 9.7655L120.802 19.3112L120.207 19.0194L124.787 14.9864L128.198 14.9864L122.773 19.8114L123.389 18.6859L128.146 26.0536L125.246 26.0536L121.595 20.1449L122.262 20.2595L120.489 21.8435L120.802 20.6242L120.802 26.0536L118.194 26.0536Z" fill="#68CC34"/>
<path d="M129.552 21.4058L129.552 19.4571L137.304 19.4571L136.991 19.9781C136.991 19.9364 136.991 19.8913 136.991 19.8427C136.991 19.7871 136.991 19.7419 136.991 19.7072C136.991 19.2278 136.883 18.7797 136.667 18.3629C136.452 17.9391 136.125 17.5987 135.687 17.3416C135.249 17.0776 134.692 16.9456 134.018 16.9456C133.35 16.9456 132.769 17.088 132.275 17.3729C131.788 17.6508 131.409 18.0537 131.138 18.5817C130.874 19.1097 130.742 19.7419 130.742 20.4783C130.742 21.2356 130.87 21.8887 131.128 22.4375C131.385 22.9794 131.761 23.3962 132.254 23.688C132.755 23.9729 133.364 24.1153 134.08 24.1153C134.567 24.1153 134.988 24.0701 135.343 23.9798C135.697 23.8895 135.986 23.7679 136.208 23.6151C136.438 23.4553 136.608 23.2851 136.72 23.1044C136.838 22.9238 136.907 22.7432 136.928 22.5626L139.662 22.5626C139.62 23.028 139.463 23.4831 139.192 23.9277C138.928 24.3654 138.556 24.7649 138.076 25.1261C137.596 25.4804 137.012 25.7653 136.323 25.9807C135.642 26.1891 134.863 26.2933 133.986 26.2933C132.797 26.2933 131.757 26.0501 130.867 25.5638C129.977 25.0775 129.281 24.4001 128.78 23.5317C128.287 22.6633 128.04 21.6698 128.04 20.5513C128.04 19.405 128.29 18.4011 128.791 17.5396C129.299 16.6781 130.001 16.0077 130.898 15.5283C131.795 15.042 132.825 14.7989 133.986 14.7989C135.183 14.7989 136.215 15.042 137.085 15.5283C137.961 16.0147 138.636 16.692 139.109 17.5604C139.582 18.4219 139.818 19.4258 139.818 20.5721C139.818 20.718 139.815 20.8743 139.808 21.0411C139.801 21.2078 139.79 21.3294 139.776 21.4058L129.552 21.4058Z" fill="#68CC34"/>
<path d="M146.423 26.262C146.027 26.262 145.623 26.2238 145.213 26.1474C144.803 26.071 144.427 25.9286 144.086 25.7201C143.745 25.5117 143.471 25.206 143.262 24.8031C143.053 24.4001 142.949 23.8687 142.949 23.2087C142.949 23.0558 142.949 22.903 142.949 22.7501C142.949 22.5903 142.949 22.4271 142.949 22.2603L142.949 17.1749L140.33 17.1749L140.33 14.9864L141.395 14.9864C141.756 14.9864 142.041 14.9726 142.25 14.9448C142.459 14.91 142.612 14.8336 142.709 14.7155C142.806 14.5974 142.869 14.4133 142.897 14.1632C142.932 13.9061 142.949 13.5518 142.949 13.1002L142.949 11.3391L145.703 11.3391L145.703 14.9864L149 14.9864L149 17.1749L145.703 17.1749L145.703 21.6142C145.703 21.7462 145.703 21.8782 145.703 22.0102C145.703 22.1353 145.703 22.2569 145.703 22.375C145.703 22.8891 145.766 23.3024 145.891 23.6151C146.016 23.9277 146.312 24.084 146.778 24.084C147 24.084 147.209 24.0632 147.404 24.0215C147.605 23.9798 147.755 23.9381 147.852 23.8964L147.852 26.0432C147.72 26.0918 147.529 26.1404 147.279 26.1891C147.028 26.2377 146.743 26.262 146.423 26.262Z" fill="#68CC34"/>
</svg>
