<svg width="130" height="30" viewBox="0 0 130 30" fill="none" xmlns="http://www.w3.org/2000/svg">
<path d="M111.851 29.8234C115.597 30.373 119.075 29.6456 122.263 27.5593C122.482 27.4162 122.809 27.2995 122.769 26.967C122.73 26.6488 122.401 26.5775 122.157 26.4709C116.767 24.1139 111.385 24.1745 106.016 26.5409C105.797 26.6375 105.527 26.707 105.481 27.1077C107.314 28.556 109.427 29.4026 111.851 29.8234Z" fill="#61C02F"/>
<path d="M120.389 24.2048C121.531 24.5505 122.651 24.9656 123.701 25.5334C124.263 25.8373 124.601 25.7053 125 25.2627C126.344 23.7699 127.396 22.1026 128.09 20.2051C128.435 19.264 128.425 19.2244 127.529 18.7758C123.551 16.7854 119.345 15.9085 114.916 16.0936C114.473 16.1121 114.19 16.3043 113.949 16.6419C111.253 20.4285 107.611 22.6457 103.081 23.399C102.093 23.5633 102.053 23.7082 102.689 24.4915C102.747 24.5632 102.807 24.6332 102.866 24.704C104.104 26.1828 103.874 25.8486 105.223 25.2382C110.118 23.0228 115.133 22.6283 120.389 24.2048Z" fill="#61C02F"/>
<path d="M119.537 14.7609C122.463 15.1438 125.243 16.0169 127.907 17.2961C128.667 17.6612 128.808 17.5909 128.925 16.7348C129.147 15.113 129.054 13.4973 128.741 11.8927C128.677 11.5664 128.48 11.3655 128.204 11.2166C124.923 9.44903 121.407 8.71005 117.714 8.73145C117.163 8.73465 116.872 9.00691 116.796 9.54921C116.594 10.9799 116.153 12.3403 115.638 13.6822C115.408 14.2821 115.553 14.4755 116.206 14.505L116.235 14.5063C117.298 14.5543 118.361 14.6023 119.537 14.7609Z" fill="#61C02F"/>
<path d="M109.249 19.2908C110.273 18.5318 111.266 17.7402 112.036 16.6207C111.621 16.434 111.287 16.5211 110.963 16.5861C108.849 17.0105 106.845 17.7604 104.877 18.6441C103.812 19.1221 103.056 19.8324 102.606 20.9033C102.495 21.1687 102.211 21.43 102.439 21.7265C102.652 22.0034 102.992 21.8826 103.275 21.8298C105.414 21.4316 107.391 20.6331 109.249 19.2908Z" fill="#61C02F"/>
<path d="M112.03 9.72475C110.915 10.0737 109.841 10.5277 108.793 11.0424L108.782 11.0478C108.376 11.2468 107.972 11.4452 107.731 11.8794C106.979 13.2317 106.206 14.5722 105.453 15.9237C105.339 16.1287 105.138 16.3464 105.339 16.6128C105.587 16.7287 105.801 16.603 106.003 16.5218C108.222 15.6304 110.51 15.0147 112.883 14.7376C113.27 14.6924 113.559 14.5167 113.75 14.1491C114.458 12.7857 114.963 11.3494 115.253 9.83948C115.383 9.16489 115.189 8.97462 114.53 9.11502C113.727 9.28578 112.934 9.50079 112.03 9.72475Z" fill="#61C02F"/>
<path d="M100.497 20.7716C100.622 20.9301 100.79 20.9686 100.892 20.7912C101.393 19.9233 102.149 19.1679 102.133 18.0625C102.093 15.4178 101.589 12.8576 100.744 10.3622C100.673 10.1525 100.651 9.89589 100.376 9.82622C99.2445 11.2231 98.6671 16.7126 100.497 20.7716Z" fill="#61C02F"/>
<path d="M106.284 7.0323C106.105 5.93028 105.806 4.85922 105.443 3.80777C105.192 3.08083 104.997 3.03274 104.435 3.51899C103.294 4.50617 102.352 5.66622 101.537 6.93921C101.306 7.29993 101.273 7.62826 101.442 8.04446C102.246 10.0202 102.886 12.0453 103.21 14.1696C103.285 14.6645 103.242 15.2358 103.664 15.6737C104.034 15.4739 104.175 15.1206 104.354 14.8122C104.981 13.7321 105.566 12.6258 106.22 11.5627C106.609 10.9291 106.696 10.2697 106.617 9.56364C106.526 8.75741 106.416 7.95345 106.284 7.0323Z" fill="#61C02F"/>
<path d="M107.583 5.90854C107.804 6.49603 107.669 7.19854 108.248 7.89411C109.796 5.27301 111.263 2.7363 112.643 0.141648C112.46 0.0407487 112.418 -0.00299141 112.381 0.000158293C110.412 0.165197 108.593 0.806405 106.879 1.78284C106.507 1.99476 106.495 2.29308 106.631 2.67282C106.998 3.69481 107.349 4.72352 107.583 5.90854Z" fill="#61C02F"/>
<path d="M111.054 6.06144C110.703 6.68511 110.345 7.3056 110.003 7.93421C109.885 8.14888 109.683 8.39056 109.881 8.63353C110.084 8.88226 110.352 8.71109 110.579 8.6268C111.912 8.13178 113.279 7.75524 114.679 7.53197C115.279 7.43623 115.487 7.14782 115.483 6.55962C115.47 4.84428 115.108 3.20175 114.535 1.60046C114.454 1.37602 114.42 1.05398 114.097 1.04939C113.827 1.04555 113.749 1.32199 113.639 1.51558C112.791 2.99954 111.95 4.48747 111.054 6.06144Z" fill="#61C02F"/>
<path d="M124.412 3.98293C122.168 1.88532 119.562 0.534325 116.536 0.0545194C115.653 -0.0854865 115.531 0.0629733 115.869 0.92063C116.546 2.637 116.869 4.42791 117.011 6.2592C117.08 7.14913 117.146 7.23827 118.054 7.22591C121.064 7.1849 123.957 7.7688 126.757 8.87175C126.999 8.96722 127.278 9.18812 127.523 8.94605C127.8 8.67159 127.563 8.3803 127.436 8.12136C126.688 6.58812 125.677 5.24984 124.412 3.98293Z" fill="#61C02F"/>
<path d="M6.45958 14.0662C5.75934 14.0662 5.2618 13.5479 5.2618 12.8445C5.2618 12.1596 5.75934 11.6598 6.45958 11.6598C7.15982 11.6598 7.63893 12.1596 7.63893 12.8445C7.63893 13.5479 7.15982 14.0662 6.45958 14.0662ZM9.51851 14.0662C8.81828 14.0662 8.30231 13.5479 8.30231 12.8445C8.30231 12.1596 8.81828 11.6598 9.51851 11.6598C10.1819 11.6598 10.6794 12.1596 10.6794 12.8445C10.6794 13.5479 10.1819 14.0662 9.51851 14.0662ZM18.1425 20.3228C18.382 20.3228 18.511 20.656 18.511 21.3964C18.511 22.0628 18.382 22.3404 18.1425 22.3404C16.8526 22.3404 16.0234 21.9702 15.5258 21.3223C14.973 21.9887 14.0885 22.3404 12.9091 22.3404H4.59842C1.74219 22.3404 0.046875 20.804 0.046875 18.6013C0.046875 17.5091 0.360139 16.38 0.636549 15.6396L2.58984 16.1579C2.35029 17.1389 2.23973 17.6387 2.23973 18.1385C2.23973 19.5638 3.27165 20.3228 4.94854 20.3228H12.2273C13.4435 20.3228 13.9779 19.8415 13.9779 18.4532V14.5845H16.2076V18.4717C16.2076 19.7674 16.9263 20.3228 18.1425 20.3228Z" fill="#61C02F"/>
<path d="M26.133 20.3228H27.7731C28.0126 20.3228 28.1416 20.656 28.1416 21.3964C28.1416 22.0628 28.0126 22.3404 27.7731 22.3404H18.1356V20.3228H23.9218V20.1747C23.9218 17.8053 22.7424 16.5281 18.799 15.6211V13.4923L24.0139 8.43894L25.4697 9.91979L21.0655 14.1957C24.88 15.3804 26.133 17.287 26.133 20.2857V20.3228Z" fill="#61C02F"/>
<path d="M40.0169 18.5643V14.5845H42.265V19.1381C42.265 21.1372 40.8645 22.3404 38.8007 22.3404C37.8424 22.3404 36.9395 22.0628 36.2945 21.5074C35.6496 22.0998 34.7835 22.3404 33.6594 22.3404C32.6275 22.3404 31.6693 22.1738 31.0428 21.4704C30.5084 22.0072 29.6607 22.3404 28.1865 22.3404H27.7811V20.3228H28.1865C29.2553 20.3228 29.716 19.9711 29.716 18.5457V15.9357H31.9457V19.0455C31.9457 19.9155 32.3695 20.3228 33.3646 20.3228C34.4518 20.3228 34.8572 19.8785 34.8572 18.5457V15.9357H37.0869V19.1196C37.0869 19.934 37.5845 20.3228 38.5611 20.3228C39.6667 20.3228 40.0169 19.9155 40.0169 18.5643Z" fill="#61C02F"/>
<path d="M48.4563 22.3404C45.4158 22.3404 44.347 21.2113 44.347 18.8604V8.34638H46.5767V18.8049C46.5767 19.8415 47.1479 20.3228 48.4563 20.3228C48.6958 20.3228 48.8248 20.656 48.8248 21.3964C48.8248 22.0628 48.6958 22.3404 48.4563 22.3404Z" fill="#61C02F"/>
<path d="M48.4579 22.3404V20.3228C49.8583 20.3228 50.2822 19.8785 50.2822 18.194V14.5845H52.5303V18.4902C52.5303 21.3964 51.1851 22.3404 48.4579 22.3404ZM50.6691 26.2462C49.9689 26.2462 49.4898 25.7464 49.4898 25.0615C49.4898 24.3581 49.9689 23.8398 50.6691 23.8398C51.3878 23.8398 51.8301 24.3581 51.8301 25.0615C51.8301 25.7464 51.3878 26.2462 50.6691 26.2462Z" fill="#61C02F"/>
<path d="M65.1632 25.7279C61.2382 25.7279 58.64 24.3581 58.64 21.2113C58.64 20.6004 58.7505 19.823 59.1191 18.6753L61.0724 19.1751C60.9065 19.9155 60.8328 20.4708 60.8328 20.9151C60.8328 22.8032 62.307 23.6547 65.1632 23.6547C67.8536 23.6547 69.2172 23.0068 69.2172 22.1738C69.2172 20.9891 65.0158 20.4523 65.0158 17.5277C65.0158 15.8802 66.4347 14.3809 69.0698 14.3809C69.9359 14.3809 70.6546 14.5104 71.2442 14.6585L70.8388 16.7317C70.3597 16.6021 69.6226 16.4726 68.9593 16.4726C67.8905 16.4726 67.3377 16.8983 67.3377 17.4536C67.3377 18.916 71.5207 19.3047 71.5207 22.0072C71.5207 24.0804 69.3278 25.7279 65.1632 25.7279ZM63.5785 29.6336C62.8782 29.6336 62.3807 29.1338 62.3807 28.4489C62.3807 27.7455 62.8782 27.2272 63.5785 27.2272C64.2787 27.2272 64.7578 27.7455 64.7578 28.4489C64.7578 29.1338 64.2787 29.6336 63.5785 29.6336ZM66.6374 29.6336C65.9372 29.6336 65.4212 29.1338 65.4212 28.4489C65.4212 27.7455 65.9372 27.2272 66.6374 27.2272C67.3008 27.2272 67.7983 27.7455 67.7983 28.4489C67.7983 29.1338 67.3008 29.6336 66.6374 29.6336Z" fill="#61C02F"/>
<path d="M76.8876 20.3228H78.8225C79.062 20.3228 79.191 20.656 79.191 21.3964C79.191 22.0628 79.062 22.3404 78.8225 22.3404H76.7955V22.2849C76.4638 24.4506 75.1554 25.5057 72.6309 25.7464L72.3361 23.7287C73.9761 23.5066 74.6579 22.8587 74.6579 21.0447V14.5845H76.8876V20.3228Z" fill="#61C02F"/>
<path d="M86.5188 22.3404H78.8161V20.3228H84.5286C84.5839 20.0451 84.6207 19.7489 84.6207 19.4343C84.6207 17.5091 83.5888 16.454 81.6908 16.454C81.0643 16.454 80.493 16.5466 79.8296 16.7132L79.3321 14.7881C80.1982 14.4919 81.0827 14.3809 81.8014 14.3809C85.3578 14.3809 86.8504 16.417 86.8504 19.5083C86.8504 20.3783 86.7399 21.3409 86.5188 22.3404ZM82.5569 26.2462C81.8566 26.2462 81.3775 25.7464 81.3775 25.0615C81.3775 24.3581 81.8566 23.8398 82.5569 23.8398C83.2756 23.8398 83.7178 24.3581 83.7178 25.0615C83.7178 25.7464 83.2756 26.2462 82.5569 26.2462Z" fill="#61C02F"/>
<path d="M90.1374 6.43979H91.6485V7.47638H88.4974V6.43979H89.1055C88.9581 6.18064 88.8844 5.90298 88.8844 5.62532C88.8844 4.77383 89.5293 4.18149 90.5428 4.18149C90.8745 4.18149 91.2246 4.23702 91.4826 4.31106L91.2983 5.29213C91.1325 5.25511 90.9298 5.21808 90.7087 5.21808C90.2664 5.21808 89.9531 5.4217 89.9531 5.84745C89.9531 6.05106 90.0269 6.23617 90.1374 6.43979ZM91.1693 22.3404H88.9396V8.34638H91.1693V22.3404Z" fill="#61C02F"/>
</svg>
